<svg id="Livello_1" data-name="Livello 1" xmlns="http://www.w3.org/2000/svg" viewBox="0 0 500 500"><defs><style>.cls-1{fill:#ffbf00;}.cls-2{fill:#b36800;}</style></defs><path class="cls-1" d="M436.66,247c.85,68.51-4.8,113.87-46.06,148.21-31.59,26.29-89.22,39.69-133.9,40.35-45.38.68-93.06-6.82-122.47-25.07-53.52-33.21-65.34-80.35-69.74-159.33C61.19,192,77.4,135.41,108.93,104.05S185.85,64.42,253.68,63c62.77-1.32,106.25,13.48,136.53,42.88C421.51,136.27,435.81,178.21,436.66,247ZM334.29,163.22C316.12,145.58,290,136.7,252.37,137.5c-40.7.85-67.93,5.82-86.85,24.63s-28.65,52.76-26.67,88.25c2.65,47.39,9.73,75.68,41.85,95.6,17.65,10.95,46.25,15.45,73.48,15,26.81-.4,61.38-8.43,80.34-24.21,24.76-20.6,28.14-47.82,27.64-88.92C361.65,206.62,353.07,181.46,334.29,163.22Z"/><rect class="cls-2" x="212.77" y="-0.75" width="74.45" height="500" rx="37.23" transform="translate(499.25 -0.75) rotate(90)"/></svg>