<svg xmlns="http://www.w3.org/2000/svg" viewBox="0 0 500 372.67"><defs><style>.cls-1{fill:#ffbf00;}.cls-2{fill:#b36800;}</style></defs><g id="Livello_2" data-name="Livello 2"><g id="Layer_1" data-name="Layer 1"><path class="cls-1" d="M436.66,184.07c.85,68.5-4.8,113.87-46.06,148.21C359,358.57,301.38,372,256.7,372.63c-45.38.67-93.06-6.83-122.47-25.07C80.71,314.35,68.89,267.2,64.49,188.22,61.19,129.08,77.4,72.5,108.93,41.14S185.85,1.51,253.68.08C316.45-1.24,359.93,13.56,390.21,43,421.51,73.36,435.81,115.3,436.66,184.07ZM334.29,100.31C316.12,82.67,290,73.79,252.37,74.58c-40.7.86-67.93,5.83-86.85,24.64S136.87,152,138.85,187.47c2.65,47.39,9.73,75.67,41.85,95.6,17.65,10.95,46.25,15.45,73.48,15,26.81-.4,61.38-8.44,80.34-24.21,24.76-20.6,28.14-47.82,27.64-88.92C361.65,143.71,353.07,118.55,334.29,100.31Z"/><rect class="cls-2" x="212.77" y="-63.66" width="74.45" height="500" rx="37.23" transform="translate(436.34 -63.66) rotate(90)"/></g></g></svg>